# xmcd
#
# Track frame offsets: 
#        150
#        16195
#        40342
#        51170
#        67702
#        88647
#        119310
#        138050
#        155945
#        173990
#        195162
#
# Disc length: 2860 seconds
#
# Revision: 2
# Processed by: cddbd v1.5.2PL0 Copyright (c) Steve Scherf et al.
# Submitted via: ExactAudioCopy v0.99pb5
#
DISCID=860b2a0b
DTITLE=Stevie Ray Vaughan and Double Trouble - Greatest Hits
DYEAR=1995
DGENRE=Blues
TTITLE0=Taxman
TTITLE1=Texas Flood
TTITLE2=The House is Rockin'
TTITLE3=Pride and Joy
TTITLE4=Tightrope
TTITLE5=Little Wing
TTITLE6=Crossfire
TTITLE7=Change it
TTITLE8=Cold Shot
TTITLE9=Couldn't Stand the Weather
TTITLE10=Life Without You
EXTD=
EXTT0=
EXTT1=
EXTT2=
EXTT3=
EXTT4=
EXTT5=
EXTT6=
EXTT7=
EXTT8=
EXTT9=
EXTT10=
PLAYORDER=
